PathFileType	4	(X/Y/Z)	/Users/visionmauri/Downloads/Videos/OAW07-top_Sports2D/OAW07-top_Sports2D_px_person00.trc
DataRate	CameraRate	NumFrames	NumMarkers	Units	OrigDataRate	OrigDataStartFrame	OrigNumFrames
30.0	30.0	4	22	m	30.0	2646	3025
Frame#	Time	Hip			RHip			RKnee			RAnkle			RBigToe			RSmallToe			RHeel			LHip			LKnee			LAnkle			LBigToe			LSmallToe			LHeel			Neck			Head			Nose			RShoulder			RElbow			RWrist			LShoulder			LElbow			LWrist			
		X1	Y1	Z1	X2	Y2	Z2	X3	Y3	Z3	X4	Y4	Z4	X5	Y5	Z5	X6	Y6	Z6	X7	Y7	Z7	X8	Y8	Z8	X9	Y9	Z9	X10	Y10	Z10	X11	Y11	Z11	X12	Y12	Z12	X13	Y13	Z13	X14	Y14	Z14	X15	Y15	Z15	X16	Y16	Z16	X17	Y17	Z17	X18	Y18	Z18	X19	Y19	Z19	X20	Y20	Z20	X21	Y21	Z21	X22	Y22	Z22
2646	88.22916666666666	510.60423715006374	642.857555108426	0.0	530.6409565273235	645.4514194974049	0.0	532.67392866248	730.135777993726	0.0	531.4694259019487	810.1453427858472	0.0	534.5544973351334	824.5442857659312	0.0	545.1831824847397	827.7920231500377	0.0	528.1241784699414	826.857450468084	0.0	491.4371111297239	644.8689316446251	0.0	496.3410197453628	733.172472783249	0.0	499.0097720558417	818.792964114868	0.0	506.26016026131896	833.9646447218672	0.0	492.4975364911477	836.2816605274766	0.0	498.13548955404053	837.5446084178977	0.0	508.6226559132249	528.6126102691275	0.0	506.18267610663355	473.3773072114795	0.0	506.23873495947123	504.3982599265146	0.0	547.1878580932135	541.688349615491	0.0	564.8756633929798	604.5785293771415	0.0	563.551409716295	649.7284463164265	0.0	470.8607968218842	542.8140129068265	0.0	457.3514330986266	608.4105902976373	0.0	460.0626120630191	653.1286098027484	0.0
2647	88.26251102292768	511.00258312951007	643.2201917923577	0.0	530.6489678531404	646.1201993817546	0.0	533.1231584033413	728.9417021889333	0.0	532.8252467566776	809.5658756510869	0.0	535.4521761866788	819.4041764098855	0.0	545.8337321631802	822.9729480859401	0.0	530.2114328607367	825.7675295090913	0.0	491.3166609224802	645.6227595641768	0.0	496.41430767831696	733.3541075238601	0.0	498.93660238429703	818.6979999892773	0.0	506.2061183802599	834.1901927991915	0.0	492.59928851680087	836.4905764956823	0.0	498.48162371745894	837.7081879540647	0.0	508.88520097374374	528.0315197955136	0.0	506.6134842172699	475.5368999060907	0.0	506.16415049803885	504.2355344746737	0.0	547.5265774562002	541.0429661197602	0.0	564.4807007012142	603.3076048364719	0.0	563.6491195387493	649.732409577085	0.0	471.33110900098217	542.5161315859949	0.0	458.07578614682654	607.834396228331	0.0	460.97565562520936	651.2966459243198	0.0
2648	88.29585537918871	511.33238937603664	643.1844858575232	0.0	530.6295690435536	646.4447700136448	0.0	533.4415098207053	727.8682712952268	0.0	533.5380084931857	807.0722073762493	0.0	535.3594265747051	814.4222201271119	0.0	546.1273366405088	817.7212291193438	0.0	531.4582505769143	823.1047951359525	0.0	491.26728441957204	646.0948841242098	0.0	496.40222696158463	733.6076415014331	0.0	498.95948950129707	818.6993736078723	0.0	506.2456120443754	835.2976393297106	0.0	492.77856964539495	837.5267295147555	0.0	498.6804242077407	837.701106772236	0.0	509.3385294993794	527.8290869190362	0.0	507.623391284653	477.1203413027475	0.0	506.03502656979504	505.33780868238233	0.0	548.0225502020301	541.1254870080504	0.0	564.2684088776487	602.5462655835349	0.0	564.0031150259757	649.9322549580306	0.0	472.28048631991675	542.8348337390532	0.0	458.88192507666383	607.0556266023291	0.0	462.3766134658847	649.8129452124787	0.0
2649	88.32919973544972	511.4759751768358	643.0176443711268	0.0	530.7847057395863	646.3671852754817	0.0	533.3383057339914	727.0135938562148	0.0	533.788086532425	803.6361876247771	0.0	534.5639771158432	810.1435348116063	0.0	546.1522671078257	812.675209188801	0.0	532.0332372793973	819.8787574594724	0.0	491.3808867178235	646.3486449510852	0.0	496.296941652762	733.7087678384295	0.0	499.0542932515375	818.7602678617079	0.0	506.37830798851326	836.2869020318489	0.0	492.75637293657417	838.8406132896085	0.0	498.97818354254264	837.640748272461	0.0	509.8763086275026	527.5196701761421	0.0	508.44274123492477	477.9434962447279	0.0	506.4432954325264	506.7490025442197	0.0	548.492624256841	541.7393239503073	0.0	564.2728734489995	602.3247580384091	0.0	564.2715330651706	650.4360127413993	0.0	473.35405319486875	543.470580310279	0.0	459.4959538874525	606.401542242345	0.0	464.1140952884183	648.4004437722426	0.0
